<?xml version="1.0" encoding="UTF-8"?>
<svg width="22px" height="22px" viewBox="0 0 22 22" version="1.1" xmlns="http://www.w3.org/2000/svg" xmlns:xlink="http://www.w3.org/1999/xlink">
    <!-- Generator: Sketch 51.1 (57501) - http://www.bohemiancoding.com/sketch -->
    <title>search</title>
    <desc>Created with Sketch.</desc>
    <defs></defs>
    <g id="Page-1" stroke="none" stroke-width="1" fill="none" fill-rule="evenodd">
        <g id="Events-1" transform="translate(-1127.000000, -20.000000)" fill="#00072A" fill-rule="nonzero">
            <g id="Group-10" transform="translate(0.000000, 1.000000)">
                <g id="magnifying-glass" transform="translate(1127.000000, 19.000000)">
                    <path d="M21.8073171,20.8780488 L16.4609756,15.5317073 C17.895122,13.8829268 18.7634146,11.7317073 18.7634146,9.3804878 C18.7634146,4.20487805 14.5536585,0 9.38292683,0 C4.20731707,0 0.00243902439,4.2097561 0.00243902439,9.3804878 C0.00243902439,14.5512195 4.21219512,18.7609756 9.38292683,18.7609756 C11.7341463,18.7609756 13.8853659,17.8926829 15.5341463,16.4585366 L20.8804878,21.804878 C21.0073171,21.9317073 21.1780488,22 21.3439024,22 C21.5097561,22 21.6804878,21.9365854 21.8073171,21.804878 C22.0609756,21.5512195 22.0609756,21.1317073 21.8073171,20.8780488 Z M1.31463415,9.3804878 C1.31463415,4.93170732 4.93414634,1.31707317 9.37804878,1.31707317 C13.8268293,1.31707317 17.4414634,4.93658537 17.4414634,9.3804878 C17.4414634,13.8243902 13.8268293,17.4487805 9.37804878,17.4487805 C4.93414634,17.4487805 1.31463415,13.8292683 1.31463415,9.3804878 Z" id="search"></path>
                </g>
            </g>
        </g>
    </g>
</svg>