<?xml version="1.0" encoding="UTF-8"?>
<svg width="22px" height="22px" viewBox="0 0 22 22" version="1.1" xmlns="http://www.w3.org/2000/svg" xmlns:xlink="http://www.w3.org/1999/xlink">
    <!-- Generator: Sketch 51.1 (57501) - http://www.bohemiancoding.com/sketch -->
    <title>settings</title>
    <desc>Created with Sketch.</desc>
    <defs></defs>
    <g id="Page-1" stroke="none" stroke-width="1" fill="none" fill-rule="evenodd">
        <g id="Events-1" transform="translate(-1189.000000, -20.000000)" fill="#00072A" fill-rule="nonzero">
            <g id="Group-10" transform="translate(0.000000, 1.000000)">
                <g id="settings" transform="translate(1189.000000, 19.000000)">
                    <path d="M20.8609603,8.68522338 L19.3177453,8.42342797 C19.1569937,7.90443006 18.9503132,7.40380376 18.6977035,6.92614196 L19.6070981,5.65390814 C19.9929019,5.11194572 19.9331942,4.37248852 19.4601253,3.90401253 L18.0914405,2.53532777 C17.834238,2.27812526 17.4943633,2.1357453 17.131524,2.1357453 C16.8467641,2.1357453 16.5757829,2.22301044 16.3461378,2.38835491 L15.0693111,3.29774948 C14.5732777,3.03595407 14.0542797,2.82008768 13.5169102,2.65933612 L13.2597077,1.13449269 C13.1494781,0.477707724 12.5845511,4.59290188e-05 11.9185804,4.59290188e-05 L9.98496868,4.59290188e-05 C9.31899791,4.59290188e-05 8.75407098,0.477707724 8.64384134,1.13449269 L8.37745303,2.69607933 C7.86304802,2.8568309 7.36242171,3.06810438 6.88475992,3.32530689 L5.6217119,2.41591232 C5.39206681,2.25056785 5.11649269,2.16330271 4.83173278,2.16330271 C4.46889353,2.16330271 4.12442589,2.30568267 3.87181628,2.56288518 L2.49853862,3.93156994 C2.03006263,4.40004593 1.965762,5.13950313 2.35156576,5.68146555 L3.27014614,6.97207098 C3.01753653,7.45432568 2.81544885,7.95495198 2.65929019,8.4739499 L1.13444676,8.7311524 C0.477661795,8.84138205 -2.84217094e-14,9.40630898 -2.84217094e-14,10.0722797 L-2.84217094e-14,12.0058914 C-2.84217094e-14,12.6718622 0.477661795,13.2367891 1.13444676,13.3470188 L2.6960334,13.6134071 C2.85678497,14.1278121 3.06805846,14.6284384 3.32526096,15.1061002 L2.42045929,16.3645553 C2.03465553,16.9065177 2.09436326,17.6459749 2.56743215,18.1144509 L3.93611691,19.4831357 C4.19331942,19.7403382 4.53319415,19.8827182 4.8960334,19.8827182 C5.18079332,19.8827182 5.45177453,19.795453 5.68141962,19.6301086 L6.97202505,18.7115282 C7.43590814,18.954952 7.92275574,19.1524468 8.42338205,19.3086054 L8.68058455,20.8518205 C8.7908142,21.5086054 9.35574113,21.9862672 10.0217119,21.9862672 L11.9599165,21.9862672 C12.6258873,21.9862672 13.1908142,21.5086054 13.3010438,20.8518205 L13.5628392,19.3086054 C14.0818372,19.1478539 14.5824635,18.9411733 15.0601253,18.6885637 L16.3323591,19.5979582 C16.5620042,19.7633027 16.8375783,19.8505678 17.1223382,19.8505678 C17.4851775,19.8505678 17.8250522,19.7081879 18.0822547,19.4509854 L19.4509395,18.0823006 C19.9194154,17.6138246 19.9837161,16.8743674 19.5979123,16.332405 L18.6885177,15.0555783 C18.9411273,14.5733236 19.1524008,14.0726973 19.3085595,13.5582923 L20.8517745,13.3010898 C21.5085595,13.1908601 21.9862213,12.6259332 21.9862213,11.9599624 L21.9862213,10.0263507 C21.9954071,9.36037996 21.5177453,8.79545303 20.8609603,8.68522338 Z M20.7553236,11.9599624 C20.7553236,12.0196701 20.7139875,12.0701921 20.6542797,12.0793779 L18.725261,12.400881 C18.4818372,12.4422171 18.2889353,12.6213403 18.2292276,12.8555783 C18.0546973,13.5307349 17.788309,14.178334 17.4300626,14.7800042 C17.3060543,14.9912777 17.3152401,15.2530731 17.45762,15.4551608 L18.5920668,17.0534906 C18.6242171,17.0994196 18.6196242,17.1683132 18.5782881,17.2096493 L17.2096033,18.578334 C17.177453,18.6104843 17.1453027,18.6150772 17.1223382,18.6150772 C17.0947808,18.6150772 17.0718163,18.6058914 17.0534447,18.5921127 L15.4597077,17.457666 C15.2622129,17.315286 14.9958246,17.3061002 14.7845511,17.4301086 C14.182881,17.7883549 13.5352818,18.0547432 12.8601253,18.2292735 C12.6212944,18.2889812 12.4421712,18.486476 12.405428,18.7253069 L12.0793319,20.6543257 C12.0701461,20.7140334 12.0196242,20.7553695 11.9599165,20.7553695 L10.0263048,20.7553695 C9.96659708,20.7553695 9.91607516,20.7140334 9.90688935,20.6543257 L9.58538622,18.7253069 C9.5440501,18.4818831 9.36492693,18.2889812 9.13068894,18.2292735 C8.47390397,18.0593361 7.84008351,17.7975407 7.24759916,17.457666 C7.15114823,17.4025511 7.04091858,17.3749937 6.93528184,17.3749937 C6.81127349,17.3749937 6.68267223,17.411737 6.57703549,17.4898163 L4.96951983,18.6334489 C4.94655532,18.6472276 4.92359081,18.6564134 4.9006263,18.6564134 C4.8822547,18.6564134 4.84551148,18.6518205 4.81336117,18.6196701 L3.44467641,17.2509854 C3.40334029,17.2096493 3.39874739,17.1453486 3.4308977,17.0948267 L4.56075157,15.5102756 C4.70313152,15.3081879 4.71231733,15.0417996 4.58830898,14.8305261 C4.23006263,14.2334489 3.95448852,13.5858497 3.77995825,12.9106931 C3.71565762,12.6764551 3.52275574,12.4973319 3.28392484,12.4559958 L1.34112735,12.1253069 C1.28141962,12.1161211 1.24008351,12.0655992 1.24008351,12.0058914 L1.24008351,10.0722797 C1.24008351,10.012572 1.28141962,9.9620501 1.34112735,9.9528643 L3.25636743,9.63136117 C3.49979123,9.59002505 3.69728601,9.41090188 3.75699374,9.17207098 C3.92693111,8.49691441 4.18872651,7.84472234 4.54237996,7.24305219 C4.66638831,7.03177871 4.6526096,6.7699833 4.51022965,6.57248852 L3.36659708,4.96497286 C3.33444676,4.91904384 3.33903967,4.85015031 3.38037578,4.8088142 L4.74906054,3.44012944 C4.78121086,3.40797912 4.81336117,3.40338622 4.83632568,3.40338622 C4.86388309,3.40338622 4.8868476,3.41257203 4.90521921,3.42635073 L6.48977035,4.55620459 C6.69185804,4.69858455 6.95824635,4.70777035 7.16951983,4.583762 C7.76659708,4.22551566 8.41419624,3.94994154 9.08935282,3.77541127 C9.32359081,3.71111065 9.50271399,3.51820877 9.5440501,3.27937787 L9.87473904,1.33658038 C9.88392484,1.27687265 9.93444676,1.23553653 9.99415449,1.23553653 L11.9277662,1.23553653 C11.9874739,1.23553653 12.0379958,1.27687265 12.0471816,1.33658038 L12.3686848,3.25182046 C12.4100209,3.49524426 12.5891441,3.69273904 12.8279749,3.75244676 C13.5215031,3.92697704 14.182881,4.19795825 14.7983299,4.56079749 C15.0096033,4.68480585 15.2713987,4.67562004 15.4734864,4.53324008 L17.0580376,3.39420042 C17.0810021,3.38042171 17.1039666,3.37123591 17.1269311,3.37123591 C17.1453027,3.37123591 17.1820459,3.37582881 17.2141962,3.40797912 L18.582881,4.77666388 C18.6242171,4.818 18.62881,4.88230063 18.5966597,4.93282255 L17.4622129,6.5265595 C17.319833,6.72405428 17.3106472,6.99044259 17.4346555,7.20171608 C17.7929019,7.80338622 18.0592902,8.45098539 18.2338205,9.12614196 C18.2935282,9.36497286 18.491023,9.54409603 18.7298539,9.58083925 L20.6588727,9.90693528 C20.7185804,9.91612109 20.7599165,9.96664301 20.7599165,10.0263507 L20.7599165,11.9599624 L20.7553236,11.9599624 Z" id="Shape"></path>
                    <path d="M10.9954071,6.24639248 C8.37745303,6.24639248 6.25093946,8.37290605 6.25093946,10.9908601 C6.25093946,13.6088142 8.37745303,15.7353278 10.9954071,15.7353278 C13.6133612,15.7353278 15.7398747,13.6088142 15.7398747,10.9908601 C15.7398747,8.37290605 13.6133612,6.24639248 10.9954071,6.24639248 Z M10.9954071,14.4952443 C9.06179541,14.4952443 7.49102296,12.9244718 7.49102296,10.9908601 C7.49102296,9.05724843 9.06179541,7.48647599 10.9954071,7.48647599 C12.9290188,7.48647599 14.4997912,9.05724843 14.4997912,10.9908601 C14.4997912,12.9244718 12.9290188,14.4952443 10.9954071,14.4952443 Z" id="Shape"></path>
                </g>
            </g>
        </g>
    </g>
</svg>