<?xml version="1.0" encoding="UTF-8"?>
<svg width="19px" height="19px" viewBox="0 0 19 19" version="1.1" xmlns="http://www.w3.org/2000/svg" xmlns:xlink="http://www.w3.org/1999/xlink">
    <!-- Generator: Sketch 51.1 (57501) - http://www.bohemiancoding.com/sketch -->
    <title>documentation</title>
    <desc>Created with Sketch.</desc>
    <defs></defs>
    <g id="Symbols" stroke="none" stroke-width="1" fill="none" fill-rule="evenodd">
        <g id="UI/Icons/Left-Nav/documents" transform="translate(-4.000000, -4.000000)" fill="#D8D8D8" fill-rule="nonzero">
            <g id="documentation" transform="translate(4.000000, 4.000000)">
                <g id="Group">
                    <path d="M14.25,4.75 L8.55,4.75 C7.98,4.75 7.6,5.13 7.6,5.7 C7.6,6.27 7.98,6.65 8.55,6.65 L14.25,6.65 C14.82,6.65 15.2,6.27 15.2,5.7 C15.2,5.13 14.82,4.75 14.25,4.75 Z" id="Shape"></path>
                    <path d="M14.25,8.55 L8.55,8.55 C7.98,8.55 7.6,8.93 7.6,9.5 C7.6,10.07 7.98,10.45 8.55,10.45 L14.25,10.45 C14.82,10.45 15.2,10.07 15.2,9.5 C15.2,8.93 14.82,8.55 14.25,8.55 Z" id="Shape"></path>
                    <path d="M14.25,12.35 L8.55,12.35 C7.98,12.35 7.6,12.73 7.6,13.3 C7.6,13.87 7.98,14.25 8.55,14.25 L14.25,14.25 C14.82,14.25 15.2,13.87 15.2,13.3 C15.2,12.73 14.82,12.35 14.25,12.35 Z" id="Shape"></path>
                    <path d="M16.15,0 L6.65,0 C5.035,0 3.8,1.235 3.8,2.85 L3.8,6.65 L0.95,6.65 C0.38,6.65 0,7.03 0,7.6 L0,16.15 C0,17.765 1.235,19 2.85,19 L16.15,19 C17.765,19 19,17.765 19,16.15 L19,2.85 C19,1.235 17.765,0 16.15,0 Z M3.8,16.15 C3.8,16.72 3.42,17.1 2.85,17.1 C2.28,17.1 1.9,16.72 1.9,16.15 L1.9,8.55 L3.8,8.55 L3.8,16.15 Z M17.1,16.15 C17.1,16.72 16.72,17.1 16.15,17.1 L5.51,17.1 C5.605,16.815 5.7,16.53 5.7,16.15 L5.7,2.85 C5.7,2.28 6.08,1.9 6.65,1.9 L16.15,1.9 C16.72,1.9 17.1,2.28 17.1,2.85 L17.1,16.15 Z" id="Shape"></path>
                </g>
            </g>
        </g>
    </g>
</svg>