<?xml version="1.0" encoding="UTF-8"?>
<svg width="22px" height="22px" viewBox="0 0 22 22" version="1.1" xmlns="http://www.w3.org/2000/svg" xmlns:xlink="http://www.w3.org/1999/xlink">
    <!-- Generator: Sketch 51.1 (57501) - http://www.bohemiancoding.com/sketch -->
    <title>Shape</title>
    <desc>Created with Sketch.</desc>
    <defs></defs>
    <g id="Symbols" stroke="none" stroke-width="1" fill="none" fill-rule="evenodd">
        <g id="UI/Icons/Left-Nav/settings" transform="translate(-2.000000, -2.000000)" fill="#D8D8D8" fill-rule="nonzero">
            <path d="M22.731851,11.470983 L20.6516004,11.1238371 C20.5006674,10.505668 20.280174,9.91506056 19.992745,9.36382697 L21.3242366,7.71275111 C21.6077282,7.3636365 21.5946036,6.86162019 21.2960187,6.52497396 L20.4691683,5.59378292 C20.169271,5.25713669 19.6718483,5.1862638 19.2925471,5.42578792 L17.5135063,6.54400464 C16.7306234,5.99736466 15.8447122,5.59378292 14.8885844,5.35950865 L14.5407823,3.26810214 C14.4672845,2.82514657 14.0840459,2.50031249 13.634528,2.50031249 L12.3876901,2.50031249 C11.9388285,2.50031249 11.5542774,2.82514657 11.4827483,3.26810214 L11.1329774,5.36016488 C10.3422197,5.55375286 9.60133553,5.86611857 8.92476192,6.27757507 L7.23299977,5.07011101 C6.86813563,4.80958751 6.36743178,4.8502738 6.04916,5.16788935 L5.16849871,6.04920687 C4.85088317,6.36747865 4.81019688,6.86818249 5.0713766,7.23304664 L6.28146559,8.92808994 C5.87394647,9.59941371 5.56486192,10.3363605 5.37127393,11.1198997 L3.26805527,11.470983 C2.82575594,11.5438246 2.50026563,11.9270632 2.50026563,12.3772373 L2.50026563,13.6227627 C2.50026563,14.0729368 2.82575594,14.4561754 3.26805527,14.529017 L5.37127393,14.8801003 C5.5300817,15.5245186 5.76107483,16.140719 6.06753446,16.7116395 L4.74194891,18.3535282 C4.45976981,18.7019865 4.47158195,19.2046591 4.77016682,19.5413053 L5.59701721,20.4724964 C5.89691453,20.8091426 6.39433723,20.8793592 6.77363844,20.6404914 L8.57827223,19.5065251 C9.3421245,20.0288846 10.2057238,20.4127794 11.1329774,20.6398351 L11.4827483,22.7318979 C11.5542774,23.1748534 11.9388285,23.4996875 12.3876901,23.4996875 L13.634528,23.4996875 C14.0847021,23.4996875 14.4679407,23.1748534 14.5407823,22.7318979 L14.8892407,20.6398351 C15.6694987,20.4488721 16.4018519,20.1424124 17.0718632,19.7381745 L18.8344982,20.9961683 C19.1987061,21.2580042 19.69941,21.2166617 20.0176818,20.8983899 L20.8983431,20.0177286 C21.2159586,19.7001131 21.2586136,19.1994092 20.9954652,18.8338889 L19.7407525,17.0751912 C20.1495841,16.4012425 20.4599811,15.6629832 20.6522566,14.8761629 L22.7325072,14.529017 C23.176119,14.4561754 23.5002969,14.0729368 23.5002969,13.6227627 L23.5002969,12.3772373 C23.4996406,11.9270632 23.1754628,11.5438246 22.731851,11.470983 Z M13.0334209,16.9373828 C10.8593293,16.9373828 9.09603807,15.1740915 9.09603807,13 C9.09603807,10.8259085 10.8593293,9.06261718 13.0334209,9.06261718 C15.2075124,9.06261718 16.9708037,10.8259085 16.9708037,13 C16.9708037,15.1740915 15.2075124,16.9373828 13.0334209,16.9373828 Z" id="Shape"></path>
        </g>
    </g>
</svg>