<?xml version="1.0" encoding="UTF-8"?>
<svg width="21px" height="22px" viewBox="0 0 21 22" version="1.1" xmlns="http://www.w3.org/2000/svg" xmlns:xlink="http://www.w3.org/1999/xlink">
    <!-- Generator: Sketch 51.1 (57501) - http://www.bohemiancoding.com/sketch -->
    <title>user_demographics</title>
    <desc>Created with Sketch.</desc>
    <defs></defs>
    <g id="Symbols" stroke="none" stroke-width="1" fill="none" fill-rule="evenodd">
        <g id="UI/Icons/Left-Nav/demograph" transform="translate(-3.000000, -2.000000)">
            <g id="user_demographics" transform="translate(3.000000, 2.000000)">
                <g id="Group">
                    <g id="Shape">
                        <path d="M2.87658824,12.3884444 C3.56217647,10.2605556 4.75176471,10.1831481 5.01282353,10.1228519 C5.54152941,10.0002222 6.18058824,10.0523704 6.52235294,9.94725926 C6.56270588,10.2784815 7.53611765,11.3674815 8.17435294,12.0511111 L8.44652941,10.9930741 C8.24270588,10.8704444 8.19782353,10.6056296 8.19782353,10.3848148 L9.24617647,10.3848148 C9.24617647,10.6072593 9.20129412,10.8753333 8.99294118,10.9967407 L9.26964706,12.0515185 C9.90829412,11.3674815 10.8812941,10.2784815 10.9216471,9.94725926 C11.2634118,10.0527778 11.9041176,10.0006296 12.4311765,10.1228519 C12.6934706,10.1831481 13.8822353,10.260963 14.5678235,12.3888519 C15.2781176,11.3088148 15.6919412,10.0214074 15.6919412,8.63988889 C15.6919412,4.83674074 12.565,1.7432963 8.72282353,1.7432963 C4.879,1.7432963 1.75205882,4.83674074 1.75205882,8.63988889 C1.75205882,10.0214074 2.16629412,11.308 2.87658824,12.3884444 Z M5.66588235,5.66988889 C5.66917647,5.66948148 5.67288235,5.66907407 5.67617647,5.66866667 C5.67617647,5.66703704 5.67658824,5.665 5.677,5.66296296 L5.67164706,5.66296296 C5.67164706,5.42503704 5.70376471,5.19566667 5.75852941,4.97444444 C5.79435294,4.54992593 5.88823529,4.15840741 6.05211765,3.84592593 C6.54047059,2.91662963 7.61147059,2.35766667 9.03411765,2.45177778 C10.6651176,2.56014815 11.6998824,3.575 11.7035882,5.32033333 C11.704,5.44255556 11.6990588,5.56151852 11.6928824,5.67885185 C11.8802353,5.74892593 11.963,6.16896296 11.8757059,6.65051852 C11.7958235,7.09418519 11.599,7.44211111 11.4120588,7.4962963 C11.1682941,8.14733333 10.7849412,8.78003704 10.3093529,9.24896296 C10.0260588,9.52885185 9.71147059,9.74966667 9.37464706,9.88207407 C9.15023529,9.96966667 8.91717647,10.0185556 8.67752941,10.0185556 C8.43747059,10.0185556 8.204,9.97007407 7.98041176,9.88207407 C7.65470588,9.75414815 7.34958824,9.54311111 7.07411765,9.27748148 C6.58741176,8.80692593 6.19417647,8.16403704 5.94505882,7.50240741 C5.74988235,7.47551852 5.53782353,7.11577778 5.45423529,6.65092593 C5.36323529,6.14492593 5.45794118,5.70614815 5.66588235,5.66988889 Z"></path>
                        <path d="M6.20364706,7.23351852 C6.25058824,7.28037037 6.3,7.304 6.34694118,7.29503704 C6.37,7.29177778 6.39017647,7.28077778 6.40870588,7.26325926 C6.63723529,7.96685185 7.07535294,8.66718519 7.62711765,9.08559259 C7.94541176,9.32718519 8.30117647,9.47425926 8.67752941,9.47425926 C9.06170588,9.47425926 9.42529412,9.31985185 9.74852941,9.0692963 C10.2912353,8.65007407 10.7207059,7.95748148 10.9455294,7.26325926 C10.9644706,7.28037037 10.9858824,7.29177778 11.0072941,7.29503704 C11.0480588,7.30277778 11.0900588,7.28648148 11.1320588,7.25225926 C11.235,7.16588889 11.3321765,6.96340741 11.3758235,6.71733333 C11.4347059,6.3967037 11.3824118,6.11559259 11.2609412,6.05977778 C11.2518824,6.0552963 11.2424118,6.05203704 11.2329412,6.05122222 C11.1950588,6.0442963 11.1555294,6.05855556 11.1180588,6.0882963 L11.1151765,6.09114815 C11.1151765,6.09074074 11.1151765,6.09033333 11.1151765,6.09033333 C11.1151765,6.09074074 11.1147647,6.09114815 11.1143529,6.09114815 C11.1139412,6.08911111 11.1139412,6.08666667 11.1131176,6.08381481 C10.9673529,5.53462963 10.7824706,5.19811111 10.5926471,4.99807407 C10.5551765,4.97811111 10.5164706,4.96018519 10.4752941,4.94837037 C10.4695294,5.02944444 10.5638235,5.15288889 10.5732941,5.27266667 C10.3089412,5.15085185 10.0569412,4.96181481 9.68882353,4.94837037 C9.60194118,4.94511111 9.50888235,4.94592593 9.41376471,4.94796296 C8.52476471,5.26207407 7.54682353,4.90640741 7.54682353,4.90640741 C6.43176471,4.80374074 6.25511765,5.95059259 6.24152941,6.08137037 C6.24152941,6.08422222 6.24111765,6.08788889 6.24111765,6.09074074 C6.20117647,6.05896296 6.16082353,6.0442963 6.12252941,6.05081481 C6.10523529,6.05407407 6.08958824,6.06059259 6.07476471,6.07118519 C6.04017647,6.09603704 6.013,6.14207407 5.99282353,6.20155556 C5.98170588,6.35555556 5.97470588,6.51159259 5.97264706,6.67251852 C5.97470588,6.68718519 5.97594118,6.70185185 5.97882353,6.71692593 C6.02041176,6.94751852 6.10770588,7.139 6.20364706,7.23351852 Z"></path>
                        <path d="M5.94547059,7.50240741 C6.19417647,8.16362963 6.58782353,8.80692593 7.07452941,9.27707407 C7.35,9.54311111 7.65511765,9.75414815 7.98082353,9.88207407 C8.20441176,9.96966667 8.43788235,10.0185556 8.67752941,10.0185556 C8.91758824,10.0185556 9.15023529,9.96966667 9.37382353,9.88207407 C9.71105882,9.74966667 10.0260588,9.52844444 10.3089412,9.24896296 C10.7832941,8.78003704 11.1674706,8.14692593 11.4112353,7.4962963 C11.5981765,7.4417037 11.7954118,7.09418519 11.8752941,6.65011111 C11.9625882,6.16855556 11.8798235,5.74892593 11.6924706,5.67844444 C11.6994706,5.56111111 11.7031765,5.44214815 11.7031765,5.32033333 C11.6982353,3.57459259 10.6647059,2.55974074 9.03288235,2.45177778 C7.61105882,2.35725926 6.54005882,2.91622222 6.05170588,3.84551852 C5.88782353,4.158 5.79394118,4.54951852 5.75811765,4.97444444 C5.70294118,5.19566667 5.67123529,5.42544444 5.67123529,5.66296296 L5.677,5.66296296 C5.677,5.66459259 5.67658824,5.66662963 5.67617647,5.66866667 C5.67288235,5.66866667 5.66917647,5.66948148 5.66588235,5.66988889 C5.45794118,5.70574074 5.36323529,6.14492593 5.45423529,6.65051852 C5.53823529,7.11577778 5.74988235,7.47511111 5.94547059,7.50240741 Z M5.99282353,6.20155556 C6.013,6.14207407 6.04017647,6.09562963 6.07476471,6.07118519 C6.08958824,6.06140741 6.10523529,6.05407407 6.12252941,6.05122222 C6.16082353,6.04388889 6.20158824,6.05937037 6.24111765,6.09074074 C6.24111765,6.08788889 6.24152941,6.08422222 6.24152941,6.08137037 C6.25511765,5.95059259 6.43176471,4.80414815 7.54682353,4.90640741 C7.54682353,4.90640741 8.52435294,5.26248148 9.41335294,4.94837037 C9.50888235,4.94633333 9.60235294,4.94551852 9.68841176,4.94877778 C10.0573529,4.96222222 10.3097647,5.15125926 10.5737059,5.27266667 C10.5634118,5.15288889 10.4699412,5.02944444 10.4757059,4.94877778 C10.5177059,4.96018519 10.556,4.97811111 10.5922353,4.99807407 C10.7828824,5.19811111 10.9665294,5.53503704 11.1135294,6.08422222 C11.1139412,6.08666667 11.1139412,6.08911111 11.1143529,6.09155556 C11.1147647,6.09114815 11.1147647,6.09074074 11.1155882,6.09033333 C11.1155882,6.09074074 11.1155882,6.09074074 11.1155882,6.09114815 L11.1180588,6.0887037 C11.1563529,6.05896296 11.1954706,6.04511111 11.2333529,6.05122222 C11.2428235,6.05285185 11.2522941,6.05611111 11.2605294,6.05977778 C11.3828235,6.116 11.4351176,6.3967037 11.3762353,6.71733333 C11.333,6.96340741 11.2354118,7.16548148 11.1320588,7.25225926 C11.0904706,7.28648148 11.0484706,7.30237037 11.0077059,7.29503704 C10.9850588,7.29177778 10.9648824,7.28037037 10.9463529,7.26325926 C10.7202941,7.95748148 10.2908235,8.64925926 9.74852941,9.06888889 C9.42529412,9.31944444 9.06170588,9.47425926 8.67794118,9.47425926 C8.30117647,9.47425926 7.94541176,9.32677778 7.62711765,9.08559259 C7.07452941,8.66718519 6.63641176,7.96685185 6.40829412,7.26325926 C6.38976471,7.28037037 6.36917647,7.29137037 6.34652941,7.29503704 C6.29958824,7.30359259 6.25017647,7.28037037 6.20323529,7.23351852 C6.10729412,7.139 6.02,6.94711111 5.97841176,6.71692593 C5.97552941,6.70185185 5.97388235,6.68718519 5.97182353,6.67251852 C5.97429412,6.51159259 5.98129412,6.35555556 5.99282353,6.20155556 Z" fill="#D8D8D8" fill-rule="nonzero"></path>
                        <path d="M20.6314706,19.5926296 L15.0129412,14.0331481 C16.2824118,12.5864444 17.0528235,10.7005556 17.0528235,8.63948148 C17.0528235,4.09485185 13.3156471,0.39762963 8.72282353,0.39762963 C4.12876471,0.39762963 0.392,4.09444444 0.392,8.63948148 C0.392,13.1841111 4.12917647,16.8809259 8.72282353,16.8809259 C10.3727647,16.8809259 11.9131765,16.401 13.2085882,15.5784444 L18.9481765,21.2572963 C19.1808235,21.4866667 19.4855294,21.601963 19.7902353,21.601963 C20.0941176,21.601963 20.3992353,21.4870741 20.6314706,21.2572963 C21.0955294,20.7973333 21.0955294,20.053 20.6314706,19.5926296 Z M8.72282353,1.74288889 C12.5658235,1.74288889 15.6919412,4.83674074 15.6919412,8.63948148 C15.6919412,10.0214074 15.2768824,11.3084074 14.5678235,12.3884444 C13.8822353,10.260963 12.6926471,10.1831481 12.4311765,10.1228519 C11.9041176,10.0002222 11.2634118,10.0523704 10.9216471,9.94725926 C10.8812941,10.2784815 9.90829412,11.3674815 9.26964706,12.0515185 L8.99294118,10.9959259 C9.20129412,10.8749259 9.24617647,10.6068519 9.24617647,10.3844074 L8.19782353,10.3844074 C8.19782353,10.6056296 8.24270588,10.870037 8.44652941,10.9930741 L8.17435294,12.0511111 C7.53611765,11.3666667 6.56270588,10.2780741 6.52235294,9.94685185 C6.18058824,10.051963 5.54152941,10.0002222 5.01282353,10.1224444 C4.75135294,10.1827407 3.56176471,10.2605556 2.87658824,12.388037 C2.16670588,11.308 1.75205882,10.021 1.75205882,8.63907407 C1.75205882,4.83674074 4.879,1.74288889 8.72282353,1.74288889 Z" fill="#D8D8D8" fill-rule="nonzero"></path>
                    </g>
                </g>
            </g>
        </g>
    </g>
</svg>