<?xml version="1.0" encoding="UTF-8"?>
<svg width="21px" height="16px" viewBox="0 0 21 16" version="1.1" xmlns="http://www.w3.org/2000/svg" xmlns:xlink="http://www.w3.org/1999/xlink">
    <!-- Generator: Sketch 51.1 (57501) - http://www.bohemiancoding.com/sketch -->
    <title>Segment</title>
    <desc>Created with Sketch.</desc>
    <defs></defs>
    <g id="Symbols" stroke="none" stroke-width="1" fill="none" fill-rule="evenodd">
        <g id="UI/Icons/Left-Nav/Segment" transform="translate(-3.000000, -5.000000)" fill="#D8D8D8" fill-rule="nonzero">
            <g id="Segment" transform="translate(3.000000, 5.000000)">
                <path d="M3.74765587,5.80185948 C3.85708586,6.05539388 3.74026615,6.34963465 3.48673176,6.45906463 C3.23319736,6.56849462 2.9389566,6.45167491 2.82952661,6.19814052 C2.61301227,5.69650624 2.5,5.15522057 2.5,4.59899602 C2.5,2.33296782 4.37005325,0.5 6.67155885,0.5 C8.30579889,0.5 9.76977783,1.43224299 10.4513927,2.86299079 C10.5701591,3.1122881 10.4643429,3.4106627 10.2150456,3.5294291 C9.96574827,3.64819551 9.66737367,3.54237929 9.54860727,3.29308197 C9.03220164,2.20911767 7.91861501,1.5 6.67155885,1.5 C4.91790433,1.5 3.5,2.88978556 3.5,4.59899602 C3.5,5.01820722 3.58487186,5.42471107 3.74765587,5.80185948 Z" id="Shape"></path>
                <path d="M9.56472004,6.75396879 C9.70059932,6.51357031 10.0056327,6.42884075 10.2460312,6.56472004 C10.4864297,6.70059932 10.5711592,7.00563272 10.43528,7.24603121 C9.65205715,8.63171396 8.25941872,9.5 6.72353283,9.5 C5.54393614,9.5 4.44078456,8.98908162 3.6307231,8.10169094 C3.44454942,7.89774494 3.45895673,7.58149046 3.66290272,7.39531677 C3.86684872,7.20914309 4.18310321,7.22355039 4.3692769,7.42749639 C4.99414703,8.11201721 5.83186171,8.5 6.72353283,8.5 C7.88712504,8.5 8.95368289,7.83501958 9.56472004,6.75396879 Z" id="Shape"></path>
                <path d="M6.9112741,14.5 C7.18741647,14.5 7.4112741,14.7238576 7.4112741,15 C7.4112741,15.2761424 7.18741647,15.5 6.9112741,15.5 L1.04400671,15.5 C0.790965726,15.5 0.577814021,15.3109568 0.547586919,15.0597277 C0.516121633,14.7982075 0.5,14.5379146 0.5,14.2791265 C0.5,12.4878306 1.24538781,10.8154205 2.52808053,9.63244812 C2.66520899,9.50598044 2.86133626,9.46636571 3.0368007,9.52969439 L4.701379,10.1345996 C4.78144811,10.175376 4.95162072,10.2449926 5.19680234,10.3169769 C6.00272529,10.5535924 6.91450924,10.6006971 7.86746358,10.3387236 C8.13372789,10.2655258 8.40891635,10.4220371 8.48211419,10.6883014 C8.55531204,10.9545657 8.39880074,11.2297541 8.13253642,11.302952 C6.98417907,11.6186431 5.88756245,11.5619896 4.91509693,11.2764778 C4.60702451,11.1860291 4.3801416,11.0932126 4.30473325,11.0504556 L2.99182442,10.5766001 C2.04443033,11.5549038 1.5,12.8722821 1.5,14.2791265 C1.5,14.3524965 1.5015441,14.4261236 1.50461194,14.5 L6.9112741,14.5 Z" id="Shape"></path>
                <path d="M14.5,8.5 C12.290861,8.5 10.5,6.709139 10.5,4.5 C10.5,2.290861 12.290861,0.5 14.5,0.5 C16.709139,0.5 18.5,2.290861 18.5,4.5 C18.5,6.709139 16.709139,8.5 14.5,8.5 Z M14.5,7.5 C16.1568542,7.5 17.5,6.15685425 17.5,4.5 C17.5,2.84314575 16.1568542,1.5 14.5,1.5 C12.8431458,1.5 11.5,2.84314575 11.5,4.5 C11.5,6.15685425 12.8431458,7.5 14.5,7.5 Z" id="Oval"></path>
                <path d="M11.1386229,9.22939669 L11.2120975,9.26439124 C11.3091965,9.32075822 11.5119348,9.41533804 11.802344,9.51261257 C13.0036138,9.91498606 14.3555899,9.90891363 15.799544,9.19488078 L17.7053277,8.52805546 C17.8839867,8.46554346 18.0826291,8.5092754 18.2185181,8.64103642 C19.6627965,10.0414411 20.5,12.0178284 20.5,14.1350547 C20.5,14.4501165 20.4821138,14.7586081 20.4459217,15.0596765 C20.4157181,15.3109282 20.2025564,15.5 19.9494957,15.5 L7.05016981,15.5 C6.79600016,15.5 6.5822739,15.3093148 6.55340537,15.0567899 C6.51808734,14.7478487 6.5,14.440498 6.5,14.1350547 C6.5,12.0194202 7.33706809,10.0427815 8.78029044,8.6419328 C8.91960155,8.50671193 9.12459481,8.46435891 9.3060871,8.53329959 L11.1386229,9.22939669 Z M9.25659151,9.58421315 C8.14240634,10.7796969 7.5,12.4011825 7.5,14.1350547 C7.5,14.2561704 7.50326687,14.3778271 7.5097407,14.5 L19.4906734,14.5 C19.496897,14.3798129 19.5,14.2581423 19.5,14.1350547 C19.5,12.3962097 18.8549037,10.7718968 17.7357937,9.57617077 L16.1873934,10.1144822 C14.5400247,10.9340806 12.9193251,10.9413601 11.4847311,10.460833 C11.1542953,10.3501513 10.9047908,10.2371832 10.7482188,10.1508146 L9.25659151,9.58421315 Z" id="Shape"></path>
            </g>
        </g>
    </g>
</svg>