<?xml version="1.0" encoding="UTF-8"?>
<svg width="16px" height="14px" viewBox="0 0 16 14" version="1.1" xmlns="http://www.w3.org/2000/svg" xmlns:xlink="http://www.w3.org/1999/xlink">
    <!-- Generator: Sketch 51.1 (57501) - http://www.bohemiancoding.com/sketch -->
    <title>screen_playback</title>
    <desc>Created with Sketch.</desc>
    <defs></defs>
    <g id="Symbols" stroke="none" stroke-width="1" fill="none" fill-rule="evenodd">
        <g id="UI/Icons/Left-Nav/play" transform="translate(-5.000000, -6.000000)" fill="#D8D8D8" fill-rule="nonzero">
            <g id="screen_playback" transform="translate(5.000000, 6.000000)">
                <g id="Group">
                    <path d="M0.329545455,0.0650425641 C0.150787891,0.0816738462 -0.000773909091,0.246769744 1.21118088e-16,0.424015128 L-5.65201369e-16,13.5265308 C1.26909091e-05,13.7145077 0.173237964,13.8855051 0.363636364,13.8855231 L15.6363636,13.8855231 C15.826762,13.8855051 15.9999873,13.7145077 16,13.5265308 L16,0.424015128 C15.9999807,0.236063333 15.8267578,0.0650605128 15.6363636,0.0650425641 L8.72727273,0.0650425641 C8.53514527,0.0623323077 8.35841509,0.234331282 8.35841509,0.424015128 C8.35841509,0.613697179 8.53514527,0.785692564 8.72727273,0.782987692 L15.2727273,0.782987692 L15.2727273,13.1675744 L0.727272727,13.1675744 L0.727272727,0.782987692 L7.27272727,0.782987692 C7.46485473,0.785697949 7.64158491,0.613697179 7.64158491,0.424015128 C7.64158491,0.234331282 7.46485473,0.0623376923 7.27272727,0.0650425641 C4.95915255,0.0650425641 2.64067455,0.0650425641 0.329545455,0.0650425641 Z M6,4.91118385 L6,9.57783077 C6.0021,9.82315385 6.31454964,10.0069128 6.53409091,9.89193333 L10.8977273,7.55861795 C11.0134669,7.49777179 11.0905078,7.37114359 11.0905078,7.24169744 C11.0905078,7.11226923 11.0134669,6.98564103 10.8977273,6.92479487 L6.53409091,4.5914741 C6.47006836,4.55812179 6.39580291,4.54425282 6.32386364,4.55221128 C6.14709164,4.57142718 5.99894964,4.73562744 6,4.91118385 Z M6.72727273,5.51134231 L9.96590909,7.24451538 L6.72727273,8.97207949 L6.72727273,5.51134231 Z" id="Shape"></path>
                </g>
            </g>
        </g>
    </g>
</svg>