<?xml version="1.0" encoding="UTF-8"?>
<svg width="19px" height="19px" viewBox="0 0 19 19" version="1.1" xmlns="http://www.w3.org/2000/svg" xmlns:xlink="http://www.w3.org/1999/xlink">
    <!-- Generator: Sketch 51.1 (57501) - http://www.bohemiancoding.com/sketch -->
    <title>chatbot_2 </title>
    <desc>Created with Sketch.</desc>
    <defs></defs>
    <g id="Symbols" stroke="none" stroke-width="1" fill="none" fill-rule="evenodd">
        <g id="UI/Icons/Left-Nav/chatbot" transform="translate(-4.000000, -3.000000)" fill="#D8D8D8" fill-rule="nonzero">
            <g id="chatbot_2-" transform="translate(4.000000, 3.000000)">
                <g id="Group">
                    <path d="M16.4372093,9.39204545 L15.6736744,9.39204545 C14.7616744,6.99545455 12.4922791,5.39772727 9.94716279,5.39772727 L9.73506977,5.39772727 L9.73506977,3.99431818 C10.731907,3.64886364 11.2833488,2.54772727 10.944,1.53295455 C10.6046512,0.518181818 9.52297674,-0.0431818182 8.52613953,0.302272727 C7.52930233,0.647727273 6.97786047,1.74886364 7.3172093,2.76363636 C7.50809302,3.325 7.91106977,3.75681818 8.46251163,3.97272727 L8.46251163,5.39772727 L8.2504186,5.39772727 C5.70530233,5.39772727 3.43590698,6.99545455 2.52390698,9.39204545 L1.8027907,9.39204545 C0.869581395,9.39204545 0.106046512,10.1693182 0.106046512,11.1193182 L0.106046512,13.0625 C0.106046512,14.0125 0.869581395,14.7897727 1.8027907,14.7897727 L2.07851163,14.7897727 L2.07851163,15.9772727 C2.07851163,17.5318182 3.30865116,18.7840909 4.83572093,18.7840909 L13.3194419,18.7840909 C14.8465116,18.7840909 16.0766512,17.5318182 16.0766512,15.9772727 L16.0766512,14.7897727 L16.4372093,14.7897727 C17.3704186,14.7897727 18.1339535,14.0125 18.1339535,13.0625 L18.1339535,11.1193182 C18.1339535,10.1693182 17.3704186,9.39204545 16.4372093,9.39204545 Z M9.12,1.51136364 C9.48055814,1.51136364 9.75627907,1.79204545 9.75627907,2.15909091 C9.75627907,2.52613636 9.48055814,2.80681818 9.12,2.80681818 C8.75944186,2.80681818 8.48372093,2.52613636 8.48372093,2.15909091 C8.48372093,1.79204545 8.75944186,1.51136364 9.12,1.51136364 Z M1.8027907,13.4943182 C1.56948837,13.4943182 1.37860465,13.3 1.37860465,13.0625 L1.37860465,11.1193182 C1.37860465,10.8818182 1.56948837,10.6875 1.8027907,10.6875 L2.16334884,10.6875 C2.12093023,11.0113636 2.07851163,11.3352273 2.07851163,11.6590909 L2.07851163,13.4943182 L1.8027907,13.4943182 Z M11.6226977,17.4886364 L9.71386047,17.4886364 L9.71386047,15.1136364 L10.9864186,15.1136364 C11.3469767,15.1136364 11.6226977,15.3943182 11.6226977,15.7613636 L11.6226977,17.4886364 Z M8.44130233,17.4886364 L6.53246512,17.4886364 L6.53246512,15.7613636 C6.53246512,15.3943182 6.80818605,15.1136364 7.16874419,15.1136364 L8.44130233,15.1136364 L8.44130233,17.4886364 Z M14.804093,15.9772727 C14.804093,16.8193182 14.1466047,17.4886364 13.3194419,17.4886364 L12.8952558,17.4886364 L12.8952558,15.7613636 C12.8952558,14.6818182 12.0468837,13.8181818 10.9864186,13.8181818 L7.16874419,13.8181818 C6.10827907,13.8181818 5.25990698,14.6818182 5.25990698,15.7613636 L5.25990698,17.4886364 L4.83572093,17.4886364 C4.00855814,17.4886364 3.35106977,16.8193182 3.35106977,15.9772727 L3.35106977,11.6590909 C3.35106977,8.91704545 5.53562791,6.69318182 8.2292093,6.69318182 L9.92595349,6.69318182 C12.6195349,6.69318182 14.804093,8.91704545 14.804093,11.6590909 L14.804093,15.9772727 Z M16.8613953,13.0625 C16.8613953,13.3 16.6705116,13.4943182 16.4372093,13.4943182 L16.0766512,13.4943182 L16.0766512,11.6590909 C16.0766512,11.3352273 16.0554419,11.0113636 16.0130233,10.6875 L16.4372093,10.6875 C16.6705116,10.6875 16.8613953,10.8818182 16.8613953,11.1193182 L16.8613953,13.0625 Z" id="Shape"></path>
                    <path d="M6.78697674,8.63636364 C5.72651163,8.63636364 4.87813953,9.5 4.87813953,10.5795455 C4.87813953,11.6590909 5.72651163,12.5227273 6.78697674,12.5227273 C7.84744186,12.5227273 8.69581395,11.6590909 8.69581395,10.5795455 C8.69581395,9.5 7.84744186,8.63636364 6.78697674,8.63636364 Z M6.78697674,11.2272727 C6.4264186,11.2272727 6.15069767,10.9465909 6.15069767,10.5795455 C6.15069767,10.2125 6.4264186,9.93181818 6.78697674,9.93181818 C7.14753488,9.93181818 7.42325581,10.2125 7.42325581,10.5795455 C7.42325581,10.9465909 7.14753488,11.2272727 6.78697674,11.2272727 Z" id="Shape"></path>
                    <path d="M11.4530233,8.63636364 C10.3925581,8.63636364 9.54418605,9.5 9.54418605,10.5795455 C9.54418605,11.6590909 10.3925581,12.5227273 11.4530233,12.5227273 C12.5134884,12.5227273 13.3618605,11.6590909 13.3618605,10.5795455 C13.3618605,9.5 12.5134884,8.63636364 11.4530233,8.63636364 Z M11.4530233,11.2272727 C11.0924651,11.2272727 10.8167442,10.9465909 10.8167442,10.5795455 C10.8167442,10.2125 11.0924651,9.93181818 11.4530233,9.93181818 C11.8135814,9.93181818 12.0893023,10.2125 12.0893023,10.5795455 C12.0893023,10.9465909 11.8135814,11.2272727 11.4530233,11.2272727 Z" id="Shape"></path>
                </g>
            </g>
        </g>
    </g>
</svg>