<?xml version="1.0" encoding="UTF-8"?>
<svg width="18px" height="17px" viewBox="0 0 18 17" version="1.1" xmlns="http://www.w3.org/2000/svg" xmlns:xlink="http://www.w3.org/1999/xlink">
    <!-- Generator: Sketch 51.1 (57501) - http://www.bohemiancoding.com/sketch -->
    <title>engage</title>
    <desc>Created with Sketch.</desc>
    <defs></defs>
    <g id="Symbols" stroke="none" stroke-width="1" fill="none" fill-rule="evenodd">
        <g id="UI/Icons/Left-Nav/engage" transform="translate(-4.000000, -5.000000)" fill="#D8D8D8" fill-rule="nonzero">
            <g id="engage" transform="translate(4.000000, 5.000000)">
                <path d="M2.09361839,14.6655159 C2.38740495,14.6655159 2.62552689,14.9071229 2.62552689,15.202071 L2.62552689,17 L4.49114435,14.7502357 C4.57464125,14.6968946 4.67050941,14.6655159 4.77565397,14.6655159 L9,14.6655159 L9,12.7326641 L3.5015468,12.7326641 C3.20775923,12.7326641 2.96963729,12.4910582 2.96963729,12.196109 L2.96963729,7 L0,7 L0,14.6655159 L2.09361839,14.6655159 Z" id="Shape"></path>
                <path d="M15.2489624,11.1868665 L18,11.1868665 L18,0 L4,0 L4,11.186867 L9.40721291,11.186867 C9.50819699,11.186867 9.60306022,11.2129412 9.68568374,11.2621931 L14.7256834,14 L14.7256834,11.6851761 C14.7256835,11.4099475 14.9582519,11.1868665 15.2489624,11.1868665 Z M5.72896208,8.70642202 C5.03737766,8.70642202 5.03737766,7.70980183 5.72896208,7.70980183 L12.1368305,7.70980183 C12.8284149,7.70980183 12.8284149,8.70642202 12.1368305,8.70642202 L5.72896208,8.70642202 Z M5.72896208,6.26412394 C5.03737766,6.26412394 5.03737766,5.26750374 5.72896208,5.26750374 L16.3567209,5.26750374 C17.0483053,5.26750374 17.0483053,6.26412394 16.3567209,6.26412394 L5.72896208,6.26412394 Z M5.72896208,3.69435033 C5.03737766,3.69435033 5.03737766,2.6977306 5.72896208,2.6977306 L16.3567209,2.6977306 C17.0483053,2.6977306 17.0483053,3.69435033 16.3567209,3.69435033 L5.72896208,3.69435033 Z" id="Shape"></path>
            </g>
        </g>
    </g>
</svg>