<?xml version="1.0" encoding="UTF-8"?>
<svg width="18px" height="19px" viewBox="0 0 18 19" version="1.1" xmlns="http://www.w3.org/2000/svg" xmlns:xlink="http://www.w3.org/1999/xlink">
    <!-- Generator: Sketch 51.1 (57501) - http://www.bohemiancoding.com/sketch -->
    <title>outside_the_app</title>
    <desc>Created with Sketch.</desc>
    <defs></defs>
    <g id="Symbols" stroke="none" stroke-width="1" fill="none" fill-rule="evenodd">
        <g id="UI/Icons/Left-Nav/outside" transform="translate(-4.000000, -4.000000)" fill="#D8D8D8" fill-rule="nonzero">
            <g id="outside_the_app" transform="translate(4.000000, 4.000000)">
                <g id="Group">
                    <path d="M17.8383333,17.6911923 L13.4721429,13.2244872 C13.4604762,13.2120641 13.4447619,13.2081667 13.4321429,13.1974487 C14.6183333,11.8204359 15.3442857,10.0195769 15.3442857,8.04430769 C15.3442857,3.73788462 11.9197619,0.234333333 7.71071429,0.234333333 C3.50119048,0.234333333 0.0764285714,3.73788462 0.0764285714,8.04430769 C0.0764285714,12.3509744 3.50142857,15.8545256 7.71071429,15.8545256 C9.555,15.8545256 11.2480952,15.1817308 12.5688095,14.0636538 C12.5819048,14.0794872 12.587381,14.0992179 12.602381,14.1143205 L16.9680952,18.5812692 C17.0885714,18.7040385 17.2457143,18.7656667 17.4033333,18.7656667 C17.5604762,18.7656667 17.7180952,18.7042821 17.8380952,18.5812692 C18.0788095,18.3354872 18.0788095,17.9372179 17.8383333,17.6911923 Z M7.71095238,14.5958974 C4.17952381,14.5958974 1.30714286,11.6569872 1.30714286,8.04430769 C1.30714286,4.43211538 4.17952381,1.49296154 7.71095238,1.49296154 C11.2414286,1.49296154 14.1145238,4.43187179 14.1145238,8.04430769 C14.1142857,11.6567436 11.2414286,14.5958974 7.71095238,14.5958974 Z" id="Shape"></path>
                    <rect id="Rectangle-path" x="4.485" y="6.58837179" width="1.51357143" height="3.99560256"></rect>
                    <rect id="Rectangle-path" x="6.95380952" y="7.74712821" width="1.51357143" height="2.83684615"></rect>
                    <rect id="Rectangle-path" x="9.42261905" y="5.50439744" width="1.51404762" height="5.07982051"></rect>
                </g>
            </g>
        </g>
    </g>
</svg>