<?xml version="1.0" encoding="UTF-8"?>
<svg width="14px" height="16px" viewBox="0 0 14 16" version="1.1" xmlns="http://www.w3.org/2000/svg" xmlns:xlink="http://www.w3.org/1999/xlink">
    <!-- Generator: Sketch 51.1 (57501) - http://www.bohemiancoding.com/sketch -->
    <title>uninstalls</title>
    <desc>Created with Sketch.</desc>
    <defs></defs>
    <g id="Symbols" stroke="none" stroke-width="1" fill="none" fill-rule="evenodd">
        <g id="UI/Icons/Left-Nav/uninstalls" transform="translate(-6.000000, -5.000000)" fill="#D8D8D8" fill-rule="nonzero">
            <g id="uninstalls" transform="translate(6.000000, 5.000000)">
                <path d="M8.75755903,12.6796623 L8.75755903,5.86019954 C8.75755903,5.45350729 8.42784422,5.12343822 8.02158847,5.12343822 C7.61484207,5.12343822 7.28561791,5.45350729 7.28561791,5.86019954 L7.28561791,12.6801535 C7.28561791,13.0868457 7.61484207,13.4169148 8.02158847,13.4169148 C8.42784422,13.4164236 8.75755903,13.0863546 8.75755903,12.6796623 Z M2.0558111,5.12343822 C1.6490647,5.12343822 1.31984054,5.45350729 1.31984054,5.86019954 L1.31984054,14.2298081 C1.31984054,15.2057713 2.1132168,16 3.08813247,16 L10.2466728,16 C11.2210978,16 12.0139834,15.2062625 12.0139834,14.2298081 L12.0139834,5.86019954 C12.0139834,5.45350729 11.6842686,5.12343822 11.2780129,5.12343822 C10.8717571,5.12343822 10.5420423,5.45350729 10.5420423,5.86019954 L10.5420423,14.2298081 C10.5420423,14.3933691 10.4095676,14.5264774 10.2466728,14.5264774 L3.08813247,14.5264774 C2.92474701,14.5264774 2.79178166,14.3933691 2.79178166,14.2298081 L2.79178166,5.86019954 C2.79178166,5.45301612 2.4625575,5.12343822 2.0558111,5.12343822 Z M9.31248083,0 L4.02232444,0 C3.61557804,0 3.28635388,0.330069071 3.28635388,0.73676132 L3.28635388,2.63072909 L0.735970561,2.63072909 C0.329224164,2.63072909 -1.0658141e-13,2.96079816 -1.0658141e-13,3.36749041 C-1.0658141e-13,3.77467383 0.329224164,4.10425173 0.735970561,4.10425173 L12.5973628,4.10425173 C13.0036185,4.10425173 13.3333333,3.77467383 13.3333333,3.36749041 C13.3333333,2.96079816 13.0036185,2.63072909 12.5973628,2.63072909 L10.0484514,2.63072909 L10.0484514,0.73676132 C10.0484514,0.330069071 9.71873658,0 9.31248083,0 Z M8.57651027,2.63072909 L4.758295,2.63072909 L4.758295,1.47352264 L8.57651027,1.47352264 L8.57651027,2.63072909 Z M6.04820607,12.6796623 L6.04820607,5.86019954 C6.04820607,5.45350729 5.71898191,5.12343822 5.31223551,5.12343822 C4.90548911,5.12343822 4.57626495,5.45350729 4.57626495,5.86019954 L4.57626495,12.6801535 C4.57626495,13.0868457 4.90548911,13.4169148 5.31223551,13.4169148 C5.71898191,13.4169148 6.04820607,13.0863546 6.04820607,12.6796623 Z" id="Shape"></path>
            </g>
        </g>
    </g>
</svg>