<?xml version="1.0" encoding="UTF-8"?>
<svg width="12px" height="20px" viewBox="0 0 12 20" version="1.1" xmlns="http://www.w3.org/2000/svg" xmlns:xlink="http://www.w3.org/1999/xlink">
    <!-- Generator: Sketch 51.1 (57501) - http://www.bohemiancoding.com/sketch -->
    <title>App_install</title>
    <desc>Created with Sketch.</desc>
    <defs></defs>
    <g id="Symbols" stroke="none" stroke-width="1" fill="none" fill-rule="evenodd">
        <g id="UI/Icons/Left-Nav/AppInstalls" transform="translate(-7.000000, -3.000000)" fill="#D8D8D8" fill-rule="nonzero">
            <g id="App_install" transform="translate(7.000000, 3.000000)">
                <path d="M9.15665455,9.06133712 C8.54661818,7.58895346 6.93032727,6.75523686 5.31032727,7.07781076 C5.07447273,7.12505749 4.92305455,7.34623908 4.97214545,7.57222896 C5.02123636,7.79821884 5.25098182,7.94267676 5.48836364,7.89647531 C6.68923636,7.65585149 7.89229091,8.27612159 8.34523636,9.3696952 C8.65985455,10.1291968 8.54749091,10.9587323 8.09934545,11.6011624 C8.05527273,11.4460426 7.91934545,11.3224903 7.74261818,11.2974035 C7.50458182,11.2635364 7.28247273,11.421583 7.24712727,11.6498725 L7.09614545,12.6263745 C7.0608,12.8548731 7.22552727,13.0672743 7.464,13.1011414 L8.48290909,13.2458084 C8.50450909,13.2489443 8.52610909,13.2501986 8.54749091,13.2501986 C8.76021818,13.2501986 8.94632727,13.1009324 8.97861818,12.8933395 C9.01396364,12.66505 8.84923636,12.4524397 8.61076364,12.4185726 L8.54683636,12.4093741 C9.3744,11.5118953 9.63883636,10.2257808 9.15665455,9.06133712 Z M6.51207273,12.6261655 C5.30945455,12.8665803 4.10770909,12.2471464 3.65476364,11.1529456 C3.34014545,10.3932349 3.45294545,9.56328135 3.90174545,8.92085128 C3.9456,9.07638918 4.08152727,9.20056863 4.25869091,9.22565539 C4.28050909,9.22879124 4.30189091,9.23004557 4.32349091,9.23004557 C4.53621818,9.23004557 4.72232727,9.08098842 4.75461818,8.87339549 L4.90581818,7.89668437 C4.92283636,7.7869298 4.89338182,7.67508467 4.82465455,7.58623573 C4.75570909,7.49696868 4.65250909,7.43780574 4.53796364,7.42170841 L3.51861818,7.27745955 C3.28341818,7.24547393 3.05847273,7.40142995 3.02312727,7.63013756 C2.988,7.85863612 3.15272727,8.07103734 3.3912,8.10490446 L3.45403636,8.11389388 C2.62603636,9.01116361 2.36138182,10.2972781 2.84356364,11.4615127 C3.36523636,12.7217042 4.62458182,13.5144458 5.99170909,13.5144458 C6.22254545,13.5144458 6.45643636,13.4918677 6.69032727,13.4450391 C6.9264,13.3977924 7.0776,13.1764017 7.02850909,12.9504118 C6.97898182,12.7237948 6.74814545,12.579964 6.51207273,12.6261655 Z M9.81818182,0 L2.18181818,0 C0.978763636,0 0,0.93782665 0,2.0905632 L0,17.9094368 C0,19.0621733 0.978763636,20 2.18181818,20 L9.81818182,20 C11.0212364,20 12,19.0621733 12,17.9094368 L12,2.0905632 C12,0.93782665 11.0212364,0 9.81818182,0 Z M11.1272727,17.9094368 C11.1272727,18.6012042 10.5401455,19.1637747 9.81818182,19.1637747 L2.18181818,19.1637747 C1.45985455,19.1637747 0.872727273,18.6012042 0.872727273,17.9094368 L0.872727273,17.386796 L11.1272727,17.386796 L11.1272727,17.9094368 Z M11.1272727,16.5505707 L0.872727273,16.5505707 L0.872727273,2.0905632 C0.872727273,1.39879584 1.45985455,0.836225279 2.18181818,0.836225279 L9.81818182,0.836225279 C10.5401455,0.836225279 11.1272727,1.39879584 11.1272727,2.0905632 L11.1272727,16.5505707 Z M6,4.00719154 C6.6816,4.00719154 7.23621818,3.47577037 7.23621818,2.82267843 C7.23621818,2.16958649 6.6816,1.63816532 6,1.63816532 C5.3184,1.63816532 4.76378182,2.16958649 4.76378182,2.82267843 C4.76378182,3.47577037 5.3184,4.00719154 6,4.00719154 Z M6,2.4743906 C6.20050909,2.4743906 6.36349091,2.63055567 6.36349091,2.82267843 C6.36349091,3.01480119 6.20050909,3.17096626 6,3.17096626 C5.79949091,3.17096626 5.63650909,3.01480119 5.63650909,2.82267843 C5.63650909,2.63055567 5.79949091,2.4743906 6,2.4743906 Z" id="Shape"></path>
            </g>
        </g>
    </g>
</svg>