<?xml version="1.0" encoding="UTF-8"?>
<svg width="18px" height="18px" viewBox="0 0 18 18" version="1.1" xmlns="http://www.w3.org/2000/svg" xmlns:xlink="http://www.w3.org/1999/xlink">
    <!-- Generator: Sketch 51.1 (57501) - http://www.bohemiancoding.com/sketch -->
    <title>usage</title>
    <desc>Created with Sketch.</desc>
    <defs></defs>
    <g id="Symbols" stroke="none" stroke-width="1" fill="none" fill-rule="evenodd">
        <g id="UI/Icons/Left-Nav/usage" transform="translate(-4.000000, -4.000000)" fill="#D8D8D8" fill-rule="nonzero">
            <g id="usage" transform="translate(4.000000, 4.000000)">
                <g id="Group">
                    <path d="M0,8.90322581 C0.000393924964,12.8107466 2.57605054,16.2614311 6.3509826,17.4118279 C10.1259147,18.5622248 14.217943,17.1434931 16.4409926,13.9135587 C16.5023349,13.8245756 16.5234411,13.7143387 16.4992412,13.6093279 C16.4750413,13.504317 16.4077223,13.4140219 16.3134548,13.3601323 L14.4430083,12.2918361 C14.2688802,12.1926159 14.0471008,12.23981 13.929617,12.4010845 C12.3012155,14.6469408 9.33275403,15.5020113 6.74011777,14.4720323 C4.1474815,13.4420533 2.60134528,10.7934643 2.99543551,8.05725203 C3.38952574,5.32103975 5.62189738,3.20501987 8.40215348,2.93233355 C8.60258731,2.91302697 8.75545609,2.7463441 8.75543478,2.54712774 L8.75543478,0.410353548 C8.75543509,0.302792353 8.71020029,0.200079569 8.63057348,0.126836129 C8.5506851,0.054016842 8.44404165,0.016900196 8.33566109,0.0241935484 C3.64217627,0.381734206 0.0139390278,4.24648293 0,8.90322581 Z" id="Shape"></path>
                    <path d="M9.66433891,0.0241935484 C9.55589346,0.0163961113 9.44905637,0.0535762321 9.36943157,0.126823543 C9.28980678,0.200070853 9.24457101,0.302783438 9.24456522,0.410345806 L9.24456522,2.54712 C9.24454391,2.74633636 9.39741269,2.91301923 9.59784652,2.93232581 C11.5422342,3.12487472 13.2741328,4.23134036 14.2513705,5.905343 C15.2286083,7.57934564 15.3317519,9.6162968 14.5285122,11.3785277 C14.4458844,11.5597522 14.5155164,11.7734299 14.6895809,11.8727942 L16.5600274,12.9410903 C16.6543087,12.9948861 16.7669751,13.0074198 16.8709796,12.9756825 C16.974984,12.9439452 17.0609346,12.8708028 17.1081978,12.7738142 C18.4004672,10.1191547 18.2823624,7.00413814 16.7927057,4.45269829 C15.3030489,1.90125844 12.634539,0.243444059 9.66433891,0.0241935484 Z M16.5769357,12.0567097 L15.3795209,11.3728645 C16.1355636,9.45457228 15.9697639,7.30039013 14.92885,5.51744495 C13.8879362,3.73449976 12.0846319,2.51587207 10.0271739,2.20501548 L10.0271739,0.837512903 C14.1296033,1.3616199 17.2047698,4.81122491 17.2173913,8.90322581 C17.2198756,9.98624193 17.0020687,11.0586827 16.5769357,12.0567097 Z" id="Shape"></path>
                </g>
            </g>
        </g>
    </g>
</svg>