<?xml version="1.0" encoding="UTF-8"?>
<svg width="21px" height="17px" viewBox="0 0 21 17" version="1.1" xmlns="http://www.w3.org/2000/svg" xmlns:xlink="http://www.w3.org/1999/xlink">
    <!-- Generator: Sketch 51.1 (57501) - http://www.bohemiancoding.com/sketch -->
    <title>Analyse</title>
    <desc>Created with Sketch.</desc>
    <defs></defs>
    <g id="Symbols" stroke="none" stroke-width="1" fill="none" fill-rule="evenodd">
        <g id="UI/Icons/Left-Nav/Analyse" transform="translate(-2.000000, -5.000000)" fill="#D8D8D8">
            <g id="Analyse" transform="translate(2.000000, 5.000000)">
                <path d="M3.27930352,16.8888889 L0,16.8888889 L0,12.8888889 L3.27930352,12.8888889 L3.27930352,16.8888889 Z M7.27930352,8.88888889 L4,8.88888889 L4,16.8888889 L7.27930352,16.8888889 L7.27930352,8.88888889 Z M8,4.88888889 L8,16.8884062 L11.2790133,16.8884062 L11.2790133,10.314322 C9.3423116,9.2094899 8,7.66955409 8,4.88888889 Z" id="Shape" fill-rule="nonzero"></path>
                <g id="Group" transform="translate(14.341368, 7.341368) rotate(8.000000) translate(-14.341368, -7.341368) translate(7.841368, 0.841368)">
                    <path d="M5.2602313,0 C7.67552149,0.000294997117 9.63282948,1.99005055 9.63311971,4.44442657 C9.63282948,6.89909758 7.67552149,8.88855813 5.2602313,8.88855813 C2.84581179,8.88796814 0.888503801,6.89850758 0.888503801,4.44442657 C0.888503801,1.99034555 2.84523133,0.000294997117 5.2602313,0 Z M5.2602313,1.33309197 C3.57312701,1.33338697 2.19976084,2.72901833 2.19976084,4.44413157 C2.19976084,6.15924481 3.57283678,7.55458117 5.26081176,7.55517117 C6.94791605,7.55517117 8.32128221,6.1595398 8.32186267,4.44383657 C8.32099198,2.72931333 6.94791605,1.33368197 5.2602313,1.33309197 Z" id="Combined-Shape"></path>
                    <path d="M9.89838951,7.58644086 C9.47320324,7.15456508 8.7781035,7.15456508 8.352627,7.58644086 L8.35233677,7.58644086 C7.9271505,8.01890663 7.9271505,8.72542473 8.35233677,9.15759551 L11.1350576,11.9860279 C11.5602438,12.4184936 12.2556338,12.4184936 12.6808201,11.9860279 L12.6811103,11.9860279 C13.1062966,11.5538571 13.1062966,10.847339 12.6811103,10.4151682 L9.89838951,7.58644086 Z" id="Path"></path>
                </g>
            </g>
        </g>
    </g>
</svg>