<?xml version="1.0" encoding="UTF-8"?>
<svg width="18px" height="20px" viewBox="0 0 18 20" version="1.1" xmlns="http://www.w3.org/2000/svg" xmlns:xlink="http://www.w3.org/1999/xlink">
    <!-- Generator: Sketch 51.1 (57501) - http://www.bohemiancoding.com/sketch -->
    <title>campaign</title>
    <desc>Created with Sketch.</desc>
    <defs></defs>
    <g id="Symbols" stroke="none" stroke-width="1" fill="none" fill-rule="evenodd">
        <g id="UI/Icons/Left-Nav/campaign" transform="translate(-4.000000, -3.000000)" fill="#D8D8D8" fill-rule="nonzero">
            <g id="campaign" transform="translate(4.000000, 3.000000)">
                <g id="Group">
                    <g id="Shape">
                        <path d="M13.1131222,9.28205128 L13.7635747,11.8974359 L12.7488688,12.1538462 L12.3065611,10.3076923 L9.96493213,10.3076923 C9.67873303,11.2307692 8.92420814,12.2564103 7.59728507,12.2564103 C6.24434389,12.2564103 5.489819,11.2820513 5.20361991,10.3076923 L2.86199095,10.3076923 L1.17081448,16.8717949 L0.156108597,16.6153846 L2.05542986,9.28205128 L6.08823529,9.28205128 L6.14027149,9.71794872 C6.14027149,9.76923077 6.37443439,11.2307692 7.57126697,11.2307692 C8.09162896,11.2307692 8.48190045,11 8.74208145,10.5128205 C8.97624434,10.1282051 9.02828054,9.71794872 9.02828054,9.71794872 L9.08031674,9.28205128 L13.1131222,9.28205128 Z"></path>
                        <path d="M7.57126697,7.61538462 C9.34049774,7.61538462 10.7975113,6.17948718 10.7975113,4.43589744 C10.7975113,2.69230769 9.36651584,1.25641026 7.57126697,1.25641026 C5.8020362,1.25641026 4.34502262,2.69230769 4.34502262,4.43589744 C4.34502262,6.17948718 5.8020362,7.61538462 7.57126697,7.61538462 Z M7.57126697,0.179487179 C9.93891403,0.179487179 11.8642534,2.07692308 11.8642534,4.41025641 C11.8642534,6.74358974 9.93891403,8.66666667 7.57126697,8.66666667 C5.20361991,8.66666667 3.25226244,6.76923077 3.25226244,4.41025641 C3.27828054,2.07692308 5.20361991,0.179487179 7.57126697,0.179487179 Z"></path>
                    </g>
                    <path d="M15.2205882,14.6923077 L12.9570136,17.5128205 L11.3699095,15.974359 L11.9423077,15.4102564 L12.8789593,16.3333333 L14.5701357,14.2307692 L15.2205882,14.6923077 Z M9.15837104,13.5384615 L9.15837104,17.9487179 C9.15837104,18.1794872 9.34049774,18.3589744 9.57466063,18.3589744 L14.64819,18.3589744 L16.5475113,19.7948718 C16.5995475,19.8205128 16.6515837,19.8461538 16.7036199,19.8461538 C16.7556561,19.8461538 16.7816742,19.8461538 16.8076923,19.8205128 C16.8857466,19.7692308 16.9117647,19.7179487 16.9117647,19.6153846 L16.8076923,18.3589744 L17.2239819,18.3589744 C17.4581448,18.3589744 17.6402715,18.1794872 17.6402715,17.9487179 L17.6402715,13.5384615 C17.6402715,13.3076923 17.4581448,13.1282051 17.2239819,13.1282051 L9.57466063,13.1282051 C9.34049774,13.1282051 9.15837104,13.3076923 9.15837104,13.5384615 Z" id="Shape"></path>
                </g>
            </g>
        </g>
    </g>
</svg>