<?xml version="1.0" encoding="UTF-8"?>
<svg width="16px" height="16px" viewBox="0 0 16 16" version="1.1" xmlns="http://www.w3.org/2000/svg" xmlns:xlink="http://www.w3.org/1999/xlink">
    <!-- Generator: Sketch 51.1 (57501) - http://www.bohemiancoding.com/sketch -->
    <title>my_apps</title>
    <desc>Created with Sketch.</desc>
    <defs></defs>
    <g id="Symbols" stroke="none" stroke-width="1" fill="none" fill-rule="evenodd">
        <g id="UI/Icons/Left-Nav/myapps" transform="translate(-5.000000, -5.000000)" fill="#D8D8D8" fill-rule="nonzero">
            <g id="my_apps" transform="translate(5.000000, 5.000000)">
                <g id="Group">
                    <path d="M0.380749436,0.065745618 C0.161529612,0.0896998318 -0.00332970636,0.274583198 5.03636364e-05,0.492684944 L5.03636364e-05,6.83497348 C0.000984464568,7.06733706 0.191256296,7.25545493 0.426204945,7.25630382 L6.84110618,7.25630382 C6.95495994,7.25738588 7.0645511,7.21352776 7.14560501,7.13444412 C7.22665892,7.05536048 7.27248528,6.94757901 7.27293345,6.83497348 L7.27293345,0.492684944 C7.27400423,0.379108413 7.22884769,0.269877428 7.14762701,0.189576106 C7.06640634,0.109274783 6.95594577,0.0646501321 6.84110618,0.065745618 L0.426204945,0.065745618 C0.41106382,0.0649487906 0.395890562,0.0649487906 0.380749436,0.065745618 Z M9.10820891,0.065745618 C8.88673605,0.086998377 8.71873272,0.272641397 8.72183709,0.492684944 L8.72183709,6.83497348 C8.72277119,7.06733704 8.913043,7.25545491 9.14799164,7.25630382 L15.5628927,7.25630382 C15.6767465,7.25738593 15.7863377,7.21352783 15.8673917,7.13444419 C15.9484456,7.05536054 15.994272,6.94757904 15.9947202,6.83497348 L15.9947202,0.492684944 C15.995791,0.379108382 15.9506344,0.269877369 15.8694137,0.189576041 C15.788193,0.109274713 15.6777324,0.0646500835 15.5628927,0.065745618 L9.14799164,0.065745618 C9.13473791,0.0651353671 9.12146264,0.0651353671 9.10820891,0.065745618 Z M0.380749436,8.69441798 C0.161526094,8.7183725 -0.00333443923,8.90326113 5.03636364e-05,9.12136629 L5.03636364e-05,15.4636404 C0.000979485931,15.6960075 0.191252766,15.8841309 0.426204945,15.8849798 L6.84110618,15.8849798 C6.95496151,15.8860618 7.06455404,15.8422025 7.14560822,15.7631169 C7.2266624,15.6840313 7.27248769,15.5762475 7.27293345,15.4636404 L7.27293345,9.12136629 C7.27400668,9.00778821 7.22885123,8.89855489 7.14763028,8.81825161 C7.06640933,8.73794833 6.95594737,8.69332245 6.84110618,8.69441798 L0.426204945,8.69441798 C0.41106382,8.69362115 0.395890562,8.69362115 0.380749436,8.69441798 Z M9.05138964,8.69441798 C8.92151217,8.70044086 8.80474936,8.77453276 8.74508463,8.88878398 C8.68541989,9.00303519 8.69191772,9.14008824 8.76213044,9.24831656 C8.83234317,9.35654489 8.95560381,9.41950603 9.08548127,9.41348315 L15.631076,9.41348315 C15.7620747,9.41515998 15.8838546,9.34700256 15.9498483,9.23507358 C16.015842,9.1231446 16.015842,8.98475653 15.9498483,8.87282755 C15.8838546,8.76089857 15.7620747,8.69274114 15.631076,8.69441798 L9.08548127,8.69441798 C9.07412365,8.69389075 9.06274726,8.69389075 9.05138964,8.69441798 Z M9.05138964,11.9301753 C8.85135974,11.9404194 8.69730052,12.1085982 8.70668231,12.3064751 C8.7160641,12.504352 8.88535981,12.6575353 9.08548127,12.6492225 L15.631076,12.6492225 C15.762228,12.6511355 15.8842537,12.5830322 15.9503944,12.4710088 C16.0165352,12.3589854 16.0165352,12.2204123 15.9503944,12.1083889 C15.8842537,11.9963656 15.762228,11.9282622 15.631076,11.9301753 L9.08548127,11.9301753 C9.07412365,11.9296481 9.06274726,11.9296481 9.05138964,11.9301753 Z M9.05138964,15.1659326 C8.85135974,15.1761767 8.69730052,15.3443555 8.70668231,15.5422324 C8.7160641,15.7401093 8.88535981,15.8932926 9.08548127,15.8849798 L15.631076,15.8849798 C15.762228,15.8868928 15.8842537,15.8187895 15.9503944,15.7067661 C16.0165352,15.5947427 16.0165352,15.4561696 15.9503944,15.3441462 C15.8842537,15.2321229 15.762228,15.1640195 15.631076,15.1659326 L9.08548127,15.1659326 C9.07412365,15.1654054 9.06274726,15.1654054 9.05138964,15.1659326 Z" id="Shape"></path>
                </g>
            </g>
        </g>
    </g>
</svg>