<?xml version="1.0" encoding="UTF-8"?>
<svg width="20px" height="20px" viewBox="0 0 20 20" version="1.1" xmlns="http://www.w3.org/2000/svg" xmlns:xlink="http://www.w3.org/1999/xlink">
    <!-- Generator: Sketch 51.1 (57501) - http://www.bohemiancoding.com/sketch -->
    <title>event</title>
    <desc>Created with Sketch.</desc>
    <defs></defs>
    <g id="Symbols" stroke="none" stroke-width="1" fill="none" fill-rule="evenodd">
        <g id="UI/Icons/Left-Nav/event" transform="translate(-3.000000, -3.000000)" fill="#D8D8D8" fill-rule="nonzero">
            <g id="event" transform="translate(3.000000, 3.000000)">
                <path d="M7.99412803,10.9830439 C7.96483012,10.9864572 7.93522922,10.9864572 7.90593131,10.9830439 C6.72378188,10.6744653 5.92738396,9.58045846 6.00524461,8.3720824 C6.08310525,7.16370635 7.01345323,6.17884477 8.22561708,6.02160755 C9.43778093,5.86437032 10.5928178,6.5787238 10.9822331,7.72648662 C11.0427964,7.90879215 10.9435668,8.10535515 10.7599774,8.1667508 C10.5760467,8.22163142 10.3815901,8.12067249 10.3225216,7.93963039 C10.0404896,7.10828111 9.2037798,6.59094368 8.32582472,6.70507322 C7.44786964,6.81920277 6.77428651,7.53287034 6.71840792,8.40814622 C6.66252934,9.2834221 7.23998792,10.0754386 8.09643624,10.2981885 C8.29127506,10.3232755 8.42868989,10.5000515 8.40336084,10.6930286 C8.3780318,10.8860057 8.19955047,11.0221076 8.00471164,10.9970205 L7.99412803,10.9830439 Z" id="Shape"></path>
                <path d="M9.01795629,14.9997635 L8.89200428,14.9997635 C6.46447731,14.9560201 4.30258714,13.4534864 3.41525457,11.1933716 C2.52792201,8.93325688 3.09007157,6.36110942 4.83935674,4.67731081 C6.5886419,2.99351221 9.1802169,2.5299985 11.4046336,3.50308441 C13.6290503,4.47617031 15.0477979,6.69402629 14.9987686,9.12161314 C14.9987686,9.27429237 14.9987686,9.4269716 14.9720515,9.57965083 C14.9520262,9.79045685 14.7649118,9.94511413 14.5541198,9.92508756 C14.3433278,9.90506099 14.1886807,9.71793422 14.2087059,9.5071282 C14.2087059,9.37353387 14.2277896,9.23993955 14.2316063,9.10252824 C14.2857218,6.21465004 11.9899946,3.82901571 9.10235566,3.7724018 C6.21471675,3.71578789 3.8272582,6.00960551 3.76815341,8.8973859 C3.70904862,11.7851663 6.00065076,14.1747639 8.88818755,14.2363674 C9.14321402,14.2414114 9.39828168,14.2286571 9.65153309,14.1981975 C9.86232513,14.1729008 10.0537115,14.3232858 10.0790066,14.5340919 C10.1043016,14.7448979 9.95392659,14.936297 9.74313455,14.9615937 C9.50242052,14.9891847 9.26023652,15.0019321 9.01795629,14.9997635 Z" id="Shape"></path>
                <path d="M8.5,17 C3.80557963,17 0,13.1944204 0,8.5 C-1.28941359e-15,3.80557963 3.80557963,0 8.5,0 C13.1944204,-1.28941359e-15 17,3.80557963 17,8.5 C16.998935,8.91295597 16.9686143,9.32531764 16.9092656,9.73398804 C16.8802011,9.93443298 16.6941469,10.0733643 16.493702,10.0442997 C16.293257,10.0152352 16.1543257,9.82918106 16.1833903,9.62873612 C16.6719897,6.30793214 14.9751179,3.04830907 11.9746112,1.54383953 C8.97410464,0.03937 5.34694791,0.629497624 2.9781149,3.00754276 C0.60928189,5.3855879 0.0332368938,9.01500778 1.54934104,12.0096525 C3.06544519,15.0042971 6.33162982,16.6885045 9.65051238,16.1870196 C9.74582603,16.1724514 9.84301918,16.1964091 9.92064312,16.2536057 C9.99826705,16.3108022 10.0499409,16.3965361 10.0642613,16.4918873 C10.0788296,16.5872009 10.0548719,16.6843941 9.99767529,16.762018 C9.94047871,16.8396419 9.85474488,16.8913158 9.75939368,16.9056362 C9.34243208,16.9675224 8.92152817,16.9990599 8.5,17 Z" id="Shape"></path>
                <path d="M11.5042044,20 L8,8 L19,12.1153846 L13.8486417,14.5 L11.5042044,20 Z M9.10640362,9.23076923 L11.6287193,17.8692308 L13.318564,13.9076923 L17.0291074,12.1884615 L9.10640362,9.23076923 Z" id="Shape"></path>
                <path d="M18.5864536,19.9999977 C18.3223934,19.9956878 18.0707379,19.8888703 17.8862125,19.7027741 L13,14.7909629 L13.5532291,14.2574846 L18.4278355,19.1692957 C18.4692551,19.2121503 18.526391,19.2368572 18.5864536,19.2378858 C18.6461281,19.2387332 18.7035146,19.2152966 18.7450718,19.1731063 L19.1783701,18.7577553 C19.2659357,18.6714552 19.2659357,18.5315895 19.1783701,18.4452895 L14.2960263,13.5334783 L14.8492554,13 L19.7238618,17.9118111 C20.0964987,18.2986956 20.091369,18.9066919 19.7122556,19.2874231 L19.2866947,19.7180163 C19.1001217,19.8992181 18.8484716,20.0005555 18.5864536,19.9999977 Z" id="Shape"></path>
            </g>
        </g>
    </g>
</svg>